<?xml version="1.0" encoding="UTF-8"?>
<svg width="41px" height="28px" viewBox="0 0 41 28" version="1.1" xmlns="http://www.w3.org/2000/svg" xmlns:xlink="http://www.w3.org/1999/xlink">
    <title>card-amex</title>
    <g id="Page-1" stroke="none" stroke-width="1" fill="none" fill-rule="evenodd">
        <g id="card-amex" transform="translate(-0.000000, 0.000000)">
            <path d="M0,3.99683887 C0,1.78944571 1.79642476,0 4.00002553,0 L35.9999745,0 C38.2091276,0 40,1.79412025 40,3.99683887 L40,24.0031611 C40,26.2105543 38.2035752,28 35.9999745,28 L4.00002553,28 C1.79087243,28 0,26.2058797 0,24.0031611 L0,3.99683887 Z" id="Rectangle-Copy-4" fill="#016FD0"></path>
            <g id="American_Express_logo_(2018)" transform="translate(0.040094, 6.746593)">
                <path d="M7.76375504,14.4300891 L7.76375504,8.18422761 L14.4121074,8.18422761 L15.1254037,9.10918178 L15.8622867,8.18422761 L39.9941649,8.18422761 L39.9941649,13.999342 C39.9941649,13.999342 39.3630736,14.4238436 38.6331873,14.4300891 L25.2708684,14.4300891 L24.4666548,13.4455196 L24.4666548,14.4300891 L21.8313082,14.4300891 L21.8313082,12.7493991 C21.8313082,12.7493991 21.4713159,12.9840037 20.6930369,12.9840037 L19.7960292,12.9840037 L19.7960292,14.4300891 L15.805892,14.4300891 L15.093615,13.4852977 L14.3704015,14.4300891 L7.76375504,14.4300891 Z" id="path3082" fill="#FFFFFF"></path>
                <path d="M0,3.4767579 L1.49922969,0 L4.09199089,0 L4.94282105,1.94753894 L4.94282105,0 L8.16586223,0 L8.67236185,1.4076234 L9.16339613,0 L23.6315097,0 L23.6315097,0.707658299 C23.6315097,0.707658299 24.3920857,0 25.642044,0 L30.3364175,0.016319624 L31.1725597,1.93837012 L31.1725597,0 L33.8697685,0 L34.6121198,1.10406324 L34.6121198,0 L37.3340737,0 L37.3340737,6.24585749 L34.6121198,6.24585749 L33.9007,5.13821686 L33.9007,6.24585749 L29.9379023,6.24585749 L29.5393871,5.26128804 L28.4740535,5.26128804 L28.0820247,6.24585749 L25.3945936,6.24585749 C24.3190437,6.24585749 23.6315097,5.55264836 23.6315097,5.55264836 L23.6315097,6.24585749 L19.5795103,6.24585749 L18.7752963,5.26128804 L18.7752963,6.24585749 L3.70788899,6.24585749 L3.30964844,5.26128804 L2.24771199,5.26128804 L1.85228602,6.24585749 L0,6.24585749 L0,3.4767579 Z" id="path3080" fill="#FFFFFF"></path>
                <path d="M2.02986634,0.769981555 L0.00773283676,5.44668248 L1.32424608,5.44668248 L1.69735484,4.51019449 L3.86641197,4.51019449 L4.23758765,5.44668248 L5.583099,5.44668248 L3.56289845,0.769981555 L2.02986634,0.769981555 Z M2.77801687,1.8583912 L3.43917363,3.49485625 L2.11492719,3.49485625 L2.77801687,1.8583912 L2.77801687,1.8583912 Z" id="path3046" fill="#016FD0" fill-rule="nonzero"></path>
                <polygon id="path3048" fill="#016FD0" points="5.72228958 5.44589681 5.72228958 0.769191895 7.59312817 0.776103408 8.68127148 3.79134537 9.74335828 0.769191895 11.5992359 0.769191895 11.5992359 5.44589681 10.4238466 5.44589681 10.4238466 1.99990371 9.17790925 5.44589681 8.14709035 5.44589681 6.89767884 1.99990371 6.89767884 5.44589681"></polygon>
                <polygon id="path3050" fill="#016FD0" points="12.4034495 5.44589681 12.4034495 0.769191895 16.2389303 0.769191895 16.2389303 1.81529894 13.5912113 1.81529894 13.5912113 2.61525962 16.1770677 2.61525962 16.1770677 3.59982908 13.5912113 3.59982908 13.5912113 4.43055856 16.2389303 4.43055856 16.2389303 5.44589681"></polygon>
                <path d="M16.9194187,0.769981555 L16.9194187,5.44668248 L18.094808,5.44668248 L18.094808,3.78522352 L18.5897085,3.78522352 L19.9990157,5.44668248 L21.4353879,5.44668248 L19.888823,3.72368992 C20.5235427,3.67041185 21.1782712,3.12852217 21.1782712,2.28722003 C21.1782712,1.30307731 20.4017251,0.769981555 19.5350463,0.769981555 L16.9194187,0.769981555 L16.9194187,0.769981555 Z M18.094808,1.81608461 L19.438386,1.81608461 C19.7606918,1.81608461 19.9951495,2.06686921 19.9951495,2.30836933 C19.9951495,2.61906833 19.6913702,2.80065406 19.4557851,2.80065406 L18.094808,2.80065406 L18.094808,1.81608461 L18.094808,1.81608461 Z" id="path3052" fill="#016FD0" fill-rule="nonzero"></path>
                <polygon id="path3054" fill="#016FD0" points="22.8582276 5.44589681 21.6580933 5.44589681 21.6580933 0.769191895 22.8582276 0.769191895"></polygon>
                <path d="M25.7039067,5.44589681 L25.4448571,5.44589681 C24.1914583,5.44589681 23.4304565,4.46364049 23.4304565,3.12677534 C23.4304565,1.75688409 24.1829379,0.769191895 25.7657693,0.769191895 L27.0648838,0.769191895 L27.0648838,1.87683253 L25.718273,1.87683253 C25.075731,1.87683253 24.6213111,2.37562198 24.6213111,3.13831314 C24.6213111,4.04401239 25.1409206,4.4244048 25.8894945,4.4244048 L26.1988072,4.4244048 L25.7039067,5.44589681 Z" id="path3056" fill="#016FD0"></path>
                <path d="M28.2615379,0.769981555 L26.2394049,5.44668248 L27.555918,5.44668248 L27.9290266,4.51019449 L30.098084,4.51019449 L30.4692592,5.44668248 L31.8147706,5.44668248 L29.7945704,0.769981555 L28.2615379,0.769981555 Z M29.0096889,1.8583912 L29.6708452,3.49485625 L28.3465992,3.49485625 L29.0096889,1.8583912 Z" id="path3058" fill="#016FD0" fill-rule="nonzero"></path>
                <polygon id="path3060" fill="#016FD0" points="31.9520283 5.44589681 31.9520283 0.769191895 33.4463964 0.769191895 35.3544708 3.70751786 35.3544708 0.769191895 36.5298601 0.769191895 36.5298601 5.44589681 35.0838221 5.44589681 33.1274175 2.43065484 33.1274175 5.44589681"></polygon>
                <polygon id="path3062" fill="#016FD0" points="8.56796902 13.6301284 8.56796902 8.95342349 12.4034495 8.95342349 12.4034495 9.99953053 9.7557308 9.99953053 9.7557308 10.7994912 12.3415869 10.7994912 12.3415869 11.7840607 9.7557308 11.7840607 9.7557308 12.6147902 12.4034495 12.6147902 12.4034495 13.6301284"></polygon>
                <polygon id="path3064" fill="#016FD0" points="27.3618239 13.6301284 27.3618239 8.95342349 31.1973048 8.95342349 31.1973048 9.99953053 28.5495857 9.99953053 28.5495857 10.7994912 31.1230696 10.7994912 31.1230696 11.7840607 28.5495857 11.7840607 28.5495857 12.6147902 31.1973048 12.6147902 31.1973048 13.6301284"></polygon>
                <polygon id="path3066" fill="#016FD0" points="12.5523063 13.6301284 14.4197834 11.3206185 12.5078427 8.95342349 13.9886784 8.95342349 15.1273366 10.4168136 16.2698614 8.95342349 17.6927012 8.95342349 15.805892 11.2917759 17.6768068 13.6301284 16.1962053 13.6301284 15.0906059 12.1898059 14.011877 13.6301284"></polygon>
                <path d="M17.8164264,8.95421315 L17.8164264,13.6309141 L19.0227468,13.6309141 L19.0227468,12.1540599 L20.2599986,12.1540599 C21.3068887,12.1540599 22.1004105,11.6016015 22.1004105,10.5272143 C22.1004105,9.6371966 21.4780472,8.95421315 20.4127221,8.95421315 L17.8164264,8.95421315 L17.8164264,8.95421315 Z M19.0227468,10.011854 L20.3257275,10.011854 C20.6639365,10.011854 20.9056892,10.2180468 20.9056892,10.5502899 C20.9056892,10.8624127 20.665157,11.0887258 20.3218612,11.0887258 L19.0227468,11.0887258 L19.0227468,10.011854 Z" id="path3068" fill="#016FD0" fill-rule="nonzero"></path>
                <path d="M22.6107772,8.95342349 L22.6107772,13.6301284 L23.7861664,13.6301284 L23.7861664,11.9686655 L24.2810669,11.9686655 L25.6903742,13.6301284 L27.1267464,13.6301284 L25.5801814,11.9071319 C26.2149008,11.8538458 26.8696297,11.3119641 26.8696297,10.470658 C26.8696297,9.48651925 26.0930836,8.95342349 25.2264048,8.95342349 L22.6107772,8.95342349 L22.6107772,8.95342349 Z M23.7861664,9.99953053 L25.1297445,9.99953053 C25.4520503,9.99953053 25.6865076,10.2503111 25.6865076,10.4918113 C25.6865076,10.8025143 25.3827282,10.984096 25.1471431,10.984096 L23.7861664,10.984096 L23.7861664,9.99953053 L23.7861664,9.99953053 Z" id="path3072" fill="#016FD0" fill-rule="nonzero"></path>
                <path d="M31.7416954,13.6301284 L31.7416954,12.6147902 L34.0940207,12.6147902 C34.4420804,12.6147902 34.5927879,12.4276968 34.5927879,12.222501 C34.5927879,12.0258998 34.4425555,11.827137 34.0940207,11.827137 L33.0310318,11.827137 C32.1070434,11.827137 31.5924521,11.2671609 31.5924521,10.4264331 C31.5924521,9.6765639 32.0636929,8.95342349 33.4367306,8.95342349 L35.7256465,8.95342349 L35.2307456,10.0056803 L33.2511427,10.0056803 C32.8727297,10.0056803 32.7562418,10.2031988 32.7562418,10.3918197 C32.7562418,10.585693 32.9001927,10.7994912 33.1892801,10.7994912 L34.3028068,10.7994912 C35.3328262,10.7994912 35.7797762,11.3806645 35.7797762,12.1417364 C35.7797762,12.959963 35.2817272,13.6301284 34.2467341,13.6301284 L31.7416954,13.6301284 Z" id="path3074" fill="#016FD0"></path>
                <path d="M36.0556451,13.6301284 L36.0556451,12.6147902 L38.4079689,12.6147902 C38.7560305,12.6147902 38.9067388,12.4276968 38.9067388,12.222501 C38.9067388,12.0258998 38.7565036,11.827137 38.4079689,11.827137 L37.3449816,11.827137 C36.4209932,11.827137 35.9064014,11.2671609 35.9064014,10.4264331 C35.9064014,9.6765639 36.3776422,8.95342349 37.7506799,8.95342349 L40.0395951,8.95342349 L39.5446941,10.0056803 L37.5650921,10.0056803 C37.1866795,10.0056803 37.0701916,10.2031988 37.0701916,10.3918197 C37.0701916,10.585693 37.2141421,10.7994912 37.5032295,10.7994912 L38.6167569,10.7994912 C39.6467768,10.7994912 40.0937256,11.3806645 40.0937256,12.1417364 C40.0937256,12.959963 39.5956773,13.6301284 38.5606819,13.6301284 L36.0556451,13.6301284 Z" id="path3076" fill="#016FD0"></path>
            </g>
        </g>
    </g>
</svg>