<?xml version="1.0" encoding="UTF-8"?>
<svg width="40px" height="28px" viewBox="0 0 40 28" version="1.1" xmlns="http://www.w3.org/2000/svg" xmlns:xlink="http://www.w3.org/1999/xlink">
    <title>card-visa</title>
    <g id="Page-1" stroke="none" stroke-width="1" fill="none" fill-rule="evenodd">
        <g id="card-visa">
            <path d="M0,3.99683887 C0,1.78944571 1.79642476,0 4.00002553,0 L35.9999745,0 C38.2091276,0 40,1.79412025 40,3.99683887 L40,24.0031611 C40,26.2105543 38.2035752,28 35.9999745,28 L4.00002553,28 C1.79087243,28 0,26.2058797 0,24.0031611 L0,3.99683887 Z" id="Rectangle-Copy-4" fill="#0742A6"></path>
            <g id="Visa_Inc._logo" transform="translate(6.695652, 9.739130)" fill="#FFFFFF">
                <polygon id="polygon9" points="11.5788181 8.36590807 9.42422142 8.36590807 10.7718605 0.250707433 12.9263394 0.250707433"></polygon>
                <path d="M19.3894224,0.449100933 C18.9644412,0.284901339 18.290386,0.103604792 17.4569187,0.103604792 C15.3291853,0.103604792 13.8308529,1.20859577 13.8216628,2.78840012 C13.8039896,3.95397627 14.894425,4.60136559 15.7099835,4.99000572 C16.5435686,5.38713695 16.8269287,5.64634512 16.8269287,6.00033236 C16.8184455,6.54399251 16.1533447,6.79459483 15.533016,6.79459483 C14.6728033,6.79459483 14.2118867,6.66539235 13.5114395,6.36292546 L13.227726,6.233264 L12.9262215,8.05495007 C13.4315567,8.27916111 14.36258,8.47812834 15.3291853,8.48684893 C17.5899389,8.48684893 19.0617616,7.3989549 19.0791991,5.7154214 C19.0878,4.79161222 18.5120077,4.08375247 17.2706434,3.50532469 C16.5170588,3.134011 16.0555531,2.88363818 16.0555531,2.50371864 C16.0643897,2.15833724 16.4458948,1.80457949 17.296564,1.80457949 C17.9970112,1.78725304 18.5116543,1.95122315 18.9015247,2.115308 L19.096401,2.20148123 L19.3894224,0.449100933 L19.3894224,0.449100933 L19.3894224,0.449100933 Z" id="path11"></path>
                <path d="M22.2530671,5.49098086 C22.4305059,5.02477335 23.1132798,3.22041372 23.1132798,3.22041372 C23.1043254,3.23774017 23.2903651,2.74560036 23.3967577,2.4434777 L23.5473332,3.1427316 C23.5473332,3.1427316 23.9553481,5.08524378 24.0439496,5.49098086 C23.7072166,5.49098086 22.6786374,5.49098086 22.2530671,5.49098086 L22.2530671,5.49098086 Z M24.9126455,0.250707433 L23.2460643,0.250707433 C22.7321282,0.250707433 22.3416687,0.397351096 22.1199291,0.92402904 L18.9195513,8.36579332 L21.1803049,8.36579332 C21.1803049,8.36579332 21.5525021,7.36418727 21.6325027,7.14846733 C21.8805164,7.14846733 24.0797673,7.14846733 24.3988272,7.14846733 C24.4606833,7.4333783 24.6559131,8.36579332 24.6559131,8.36579332 L26.650862,8.36579332 L24.9126455,0.250707433 L24.9126455,0.250707433 L24.9126455,0.250707433 Z" id="path13" fill-rule="nonzero"></path>
                <path d="M7.62462011,0.250707433 L5.51455989,5.78449768 L5.28398376,4.66218025 C4.8938777,3.36717213 3.67042216,1.96017323 2.30510986,1.2605751 L4.23784915,8.35730222 L6.5162759,8.35730222 L9.90292904,0.250707433 L7.62462011,0.250707433 L7.62462011,0.250707433 L7.62462011,0.250707433 Z" id="path15"></path>
                <path d="M3.55519301,0.250707433 L0.0886570789,0.250707433 L0.0531928917,0.414677538 C2.75730771,1.08811389 4.54819024,2.71140646 5.28398376,4.66252449 L4.53039924,0.932864378 C4.4063335,0.414562793 4.02506403,0.267804386 3.55519301,0.250707433 L3.55519301,0.250707433 Z" id="path17"></path>
            </g>
        </g>
    </g>
</svg>