<?xml version="1.0" encoding="UTF-8"?>
<svg width="40px" height="28px" viewBox="0 0 40 28" version="1.1" xmlns="http://www.w3.org/2000/svg" xmlns:xlink="http://www.w3.org/1999/xlink">
    <title>card-mastercard</title>
    <g id="Page-1" stroke="none" stroke-width="1" fill="none" fill-rule="evenodd">
        <g id="card-mastercard">
            <path d="M0,3.99683887 C0,1.78944571 1.79642476,0 4.00002553,0 L35.9999745,0 C38.2091276,0 40,1.79412025 40,3.99683887 L40,24.0031611 C40,26.2105543 38.2035752,28 35.9999745,28 L4.00002553,28 C1.79087243,28 0,26.2058797 0,24.0031611 L0,3.99683887 Z" id="Rectangle-Copy-4" fill="#262626"></path>
            <g id="mc_symbol" transform="translate(7.913043, 6.086957)">
                <g id="Group" opacity="0" fill="#FFFFFF">
                    <rect id="Rectangle" x="0" y="0" width="24.2353096" height="15.8078961"></rect>
                </g>
                <rect id="Rectangle" fill="#FF5F00" x="8.92200264" y="2.75410295" width="6.39314888" height="10.2978711"></rect>
                <path d="M9.58050066,7.90394803 C9.57889542,5.89476289 10.5141307,3.99642871 12.1167325,2.75592204 C9.39416423,0.645786531 5.48444693,0.953146015 3.13522491,3.46199651 C0.78600288,5.970847 0.78600288,9.83886814 3.13522491,12.3477186 C5.48444693,14.8565691 9.39416423,15.1639286 12.1167325,13.0537931 C10.5136207,11.8128925 9.57832829,9.91377152 9.58050066,7.90394803 Z" id="Path" fill="#EB001B"></path>
                <path d="M22.3470335,12.6214191 L22.3470335,11.8643095 L22.5265207,11.8643095 L22.5265207,11.7076662 L22.0993412,11.7076662 L22.0993412,11.8643095 L22.2680592,11.8643095 L22.2680592,12.6214191 L22.3470335,12.6214191 Z M23.1762643,12.6214191 L23.1762643,11.7076662 L23.0470335,11.7076662 L22.8962643,12.3603468 L22.7454951,11.7076662 L22.6162643,11.7076662 L22.6162643,12.6214191 L22.7095976,12.6214191 L22.7095976,11.9295776 L22.8495976,12.523517 L22.9465207,12.523517 L23.0865207,11.9295776 L23.0865207,12.6214191 L23.1762643,12.6214191 Z" id="Shape" fill="#F79E1B" fill-rule="nonzero"></path>
                <path d="M22.8611331,7.90394803 C22.8611331,10.4112696 21.4093793,12.6984611 19.1225899,13.7941436 C16.8358005,14.8898261 14.1153921,14.601638 12.1167325,13.051974 C13.7186351,11.8104142 14.6539408,9.9123324 14.6539408,7.90303848 C14.6539408,5.89374456 13.7186351,3.99566278 12.1167325,2.75410295 C14.1153921,1.20443892 16.8358005,0.916250864 19.1225899,2.01193335 C21.4093793,3.10761583 22.8611331,5.39480737 22.8611331,7.90212894 L22.8611331,7.90394803 Z" id="Path" fill="#F79E1B"></path>
            </g>
        </g>
    </g>
</svg>