<?xml version="1.0" encoding="UTF-8"?>
<svg width="40" height="24" viewBox="0 0 40 24" version="1.1" xmlns="http://www.w3.org/2000/svg" xmlns:xlink="http://www.w3.org/1999/xlink">
    <line x1="26.5" y1="17.4956339" x2="36.5" y2="17.4956339" stroke="#000" stroke-width="1.5" stroke-linecap="round" stroke-linejoin="round"></line>
    <line x1="24.5" y1="7.49563387" x2="36.5" y2="7.49563387" stroke="#000" stroke-width="1.5" stroke-linecap="round" stroke-linejoin="round"></line>
    <line x1="23.5" y1="12.4956339" x2="36.5" y2="12.4956339" stroke="#000" stroke-width="1.5" stroke-linecap="round" stroke-linejoin="round"></line>
    <g transform="translate(3, 3)" fill="#000" fill-rule="nonzero">
        <path d="M9,0 C6.23857625,0 4,2.23857625 4,5 C4,7.76142375 6.23857625,10 9,10 C11.7614237,10 14,7.76142375 14,5 C14,2.23857625 11.7614237,0 9,0 L9,0 Z M5.5,4.99999993 C5.5,3.74957042 6.1670962,2.59412582 7.24999998,1.96891103 C8.33290376,1.34369623 9.66709624,1.34369623 10.75,1.96891103 C11.8329038,2.59412582 12.5,3.74957042 12.5,4.99999993 C12.5,6.93299662 10.9329966,8.49999993 9,8.49999993 C7.06700338,8.49999993 5.5,6.93299662 5.5,4.99999993 L5.5,4.99999993 Z"></path>
        <path d="M4.75,11.5 C2.12664744,11.5 0,13.6266474 0,16.25 L0,17.25 C0,17.6642136 0.335786438,18 0.75,18 C1.16421356,18 1.5,17.6642136 1.5,17.25 L1.5,16.25 C1.5,14.4550746 2.95507456,13 4.75,13 L13.25,13 C15.0449254,13 16.5,14.4550746 16.5,16.25 L16.5,17.25 C16.5,17.6642136 16.8357864,18 17.25,18 C17.6642136,18 18,17.6642136 18,17.25 L18,16.25 C18,13.6266474 15.8733526,11.5 13.25,11.5 L4.75,11.5 L4.75,11.5 Z"></path>
    </g>
</svg>