<?xml version="1.0" encoding="UTF-8"?>
<svg width="88px" height="88px" viewBox="0 0 88 88" version="1.1" xmlns="http://www.w3.org/2000/svg" xmlns:xlink="http://www.w3.org/1999/xlink">
    <title>demo</title>
    <defs>
        <linearGradient x1="105.169703%" y1="1.74147944e-13%" x2="5.78221255e-13%" y2="100%" id="linearGradient-1">
            <stop stop-color="#FFFFFF" stop-opacity="0.5" offset="0%"></stop>
            <stop stop-color="#FFFFFF" stop-opacity="0.5" offset="36.9744423%"></stop>
            <stop stop-color="#FFFFFF" stop-opacity="0.5" offset="41.5297233%"></stop>
            <stop stop-color="#FFC68C" stop-opacity="0.5" offset="60.9096845%"></stop>
            <stop stop-color="#FFFFFF" stop-opacity="0.5" offset="100%"></stop>
        </linearGradient>
        <polygon id="path-2" points="33 0 44 0 88 0 0 88 0 44 0 33"></polygon>
    </defs>
    <g id="Page-1" stroke="none" stroke-width="1" fill="none" fill-rule="evenodd">
        <g id="demo" fill-rule="nonzero">
            <g id="Rectangle">
                <use fill="#FFC574" xlink:href="#path-2"></use>
                <use fill="url(#linearGradient-1)" xlink:href="#path-2"></use>
            </g>
            <g id="DEMO" transform="translate(31.933854, 28.591327) rotate(-45.000000) translate(-31.933854, -28.591327) translate(7.510854, 23.565327)" fill="#000000" opacity="0.500767299">
                <path d="M44.226,-2.11211277e-13 C46.83,-2.11211277e-13 48.846,2.114 48.846,5.04 C48.846,7.938 46.816,10.052 44.226,10.052 C41.636,10.052 39.606,7.924 39.606,5.012 C39.606,2.1 41.622,-2.11211277e-13 44.226,-2.11211277e-13 Z M3.528,0.084 C6.188,0.056 8.134,2.072 8.134,4.942 C8.134,7.854 6.244,9.898 3.668,9.912 L3.668,9.912 L1.86820463e-13,9.94 L1.86820463e-13,0.112 Z M19.698,0.112 L19.698,1.456 L14.714,1.456 L14.714,4.298 L19.404,4.298 L19.404,5.6 L14.714,5.6 L14.714,8.568 L19.698,8.568 L19.698,9.912 L13.356,9.912 L13.356,0.112 L19.698,0.112 Z M26.53,0.112 L29.652,8.05 L32.69,0.112 L34.384,0.112 L34.384,9.912 L33.04,9.912 L33.04,2.618 L30.268,9.912 L28.994,9.912 L26.18,2.59 L26.18,9.912 L24.78,9.912 L24.78,0.112 L26.53,0.112 Z M44.226,1.33 C42.364,1.33 41.076,2.926 41.076,5.054 C41.076,7.14 42.378,8.694 44.212,8.694 C46.088,8.694 47.404,7.154 47.404,5.082 C47.404,2.94 46.102,1.33 44.226,1.33 Z M3.528,1.456 L1.33,1.484 L1.33,8.596 L3.472,8.568 C5.334,8.554 6.734,7.126 6.734,4.998 C6.734,2.856 5.362,1.428 3.528,1.456 L3.528,1.456 Z" id="Combined-Shape"></path>
            </g>
        </g>
    </g>
</svg>