<?xml version="1.0" encoding="UTF-8"?>
<svg width="98px" height="98px" viewBox="0 0 98 98" version="1.1" xmlns="http://www.w3.org/2000/svg" xmlns:xlink="http://www.w3.org/1999/xlink">
    <title>Group 3</title>
    <defs>
        <linearGradient x1="129.654581%" y1="18.3811391%" x2="-6.28695608%" y2="73.5882848%" id="linearGradient-1">
            <stop stop-color="#FFFFFF" stop-opacity="0.5" offset="0%"></stop>
            <stop stop-color="#FFFFFF" stop-opacity="0.5" offset="36.9744423%"></stop>
            <stop stop-color="#FFFFFF" stop-opacity="0.5" offset="41.5297233%"></stop>
            <stop stop-color="#9A9A9A" stop-opacity="0.5" offset="60.9096845%"></stop>
            <stop stop-color="#FFFFFF" stop-opacity="0.5" offset="100%"></stop>
        </linearGradient>
        <path d="M79.2043352,82.9960257 L79.2922883,83.0736409 L78.5915611,83.6327819 C78.1799958,83.2789149 77.4959273,83.187975 76.9231106,83.6450506 C76.2168221,84.2086292 76.2847114,85.1915123 76.8987317,85.9569409 C77.4994037,86.7057298 78.4192861,86.9541883 79.1033294,86.4083602 C79.6705848,85.9557223 79.7239007,85.2883799 79.5275352,84.8315392 L79.4903444,84.7531919 L80.1910716,84.1940509 C80.6771814,85.0615449 80.5960286,86.1997432 79.5949897,86.998516 C78.5828281,87.8061641 77.1079104,87.6276166 76.210239,86.4972224 C75.2992193,85.3501885 75.3759101,83.8880596 76.4659302,83.0182847 C77.3576142,82.306771 78.3702209,82.3638979 79.1094912,82.9206012 L79.2043352,82.9960257 Z M60.6408023,91.3802438 L63.759129,90.4015278 L63.9878893,91.1265308 L61.5964928,91.877093 L61.9962888,93.1441545 L64.2450167,92.4383702 L64.4652252,93.1362703 L62.2164973,93.8420547 L62.6355348,95.1700977 L65.0269313,94.4195355 L65.2556916,95.1445386 L62.1373649,96.1232547 L60.6408023,91.3802438 Z M82.7620311,76.9116943 L86.0044013,79.5775577 L87.4088323,77.8784558 L88.013342,78.3754812 L86.0833819,80.7103761 L82.2365021,77.5474873 L82.7620311,76.9116943 Z M50.7578853,93.0471785 L51.5879145,92.9736448 L51.7719225,95.0396789 L54.105936,94.8329044 L53.9219281,92.7668703 L54.7519572,92.6933365 L55.1930722,97.646158 L54.3630431,97.7196918 L54.1664318,95.5121485 L51.8324182,95.7189229 L52.0290295,97.9264662 L51.1990004,98 L50.7578853,93.0471785 Z M91.3790346,67.9230566 C92.7046256,68.6139055 93.1506734,70.0325389 92.5437492,71.19093 C91.9368249,72.3493211 90.5081084,72.7908967 89.1762051,72.096758 C87.8506142,71.405909 87.4045663,69.9872757 88.0114906,68.8288846 C88.6184148,67.6704934 90.0471313,67.2289179 91.3790346,67.9230566 Z M88.674286,69.174309 C88.2586749,69.9675551 88.6531531,70.8864474 89.5810668,71.3700416 C90.4900434,71.8437666 91.4527178,71.6321721 91.8650305,70.8452216 C92.2872387,70.0393843 91.9213083,69.1273555 91.018644,68.6569203 C90.084418,68.1700363 89.0931957,68.3747673 88.674286,69.174309 Z M41.0029247,92.5569152 L45.1776137,93.0348056 L45.1010394,93.7624852 L43.3965972,93.5602221 L42.9038637,97.7794899 L42.146759,97.6928216 L42.6386804,93.4806108 L40.9263504,93.2845947 L41.0029247,92.5569152 Z M92.163755,57.5306356 L95.1026199,58.3107658 C96.2864249,58.6250103 96.8314588,59.5929599 96.516379,60.7736267 C96.2129689,61.9105651 95.3158188,62.4809211 94.1926968,62.2410044 L94.0621239,62.209712 L91.123259,61.4295818 L91.3247635,60.6745042 L94.2636284,61.4546344 C95.055126,61.6647397 95.6151273,61.3062013 95.8074725,60.5854454 C95.9867199,59.9137696 95.7217365,59.3364571 95.0161798,59.100266 L94.9011154,59.0658434 L91.9622505,58.2857132 L92.163755,57.5306356 Z M25.5858031,87.023208 L26.4318252,87.4788588 L26.6004878,92.0259157 L28.4685452,88.5757957 L29.1265624,88.9301907 L26.7542649,93.3115931 L25.8489586,92.8159402 L25.6854336,88.4088889 L23.8749069,91.7527552 L23.2168897,91.3983602 L25.5858031,87.023208 Z M95.5628942,47.6045396 C96.9852581,47.6601768 97.9731311,48.6265943 98,49.8625472 L97.9991775,49.9959729 L97.9405613,51.8490714 L92.9446185,51.6536503 L93.0004435,49.8715304 C93.0389633,48.5294779 94.1110817,47.5477506 95.5628942,47.6045396 Z M93.7819355,49.7972405 L93.7761668,49.9018735 L93.74937,50.9458159 L97.2152164,51.0813858 L97.2408967,50.0658349 C97.2618321,49.1709476 96.5994213,48.4341589 95.560379,48.3935157 C94.5979128,48.3558679 93.9134744,48.9187488 93.7942566,49.6948346 L93.7819355,49.7972405 Z M19.8262299,83.0495287 L20.4581151,83.5692698 L17.286065,87.4053313 L16.6541798,86.8855903 L19.8262299,83.0495287 Z M93.358916,38.0944892 L93.4716767,38.0657784 L93.6212535,38.8905876 C93.1159719,39.0178267 92.9097503,39.5170147 93.0060879,40.0482477 C93.1100312,40.6214203 93.5066863,40.8530487 93.8150598,40.7974221 C94.176435,40.7322348 94.3399048,40.3474581 94.3268506,39.793881 L94.3218924,39.6809596 C94.2283,38.2469104 94.7282076,37.7308381 95.4360649,37.6031498 C96.3331514,37.4413271 97.0319989,38.102088 97.222139,39.1505743 C97.3915586,40.0848025 97.0856132,41.0914324 96.1396461,41.4044232 L96.0230474,41.4386037 L95.8658649,40.571855 C96.3629439,40.3594727 96.6086078,39.918137 96.4932562,39.2820553 C96.382975,38.6739332 95.9379309,38.4149407 95.5875065,38.4781527 C95.2392722,38.5409696 95.0386798,38.7865205 95.0564425,39.3745392 L95.0629274,39.4967565 C95.1685988,40.9575011 94.6603417,41.5472652 94.0015438,41.6661038 C93.2095846,41.8089629 92.4317056,41.1913325 92.2479036,40.1777958 C92.0636452,39.1617426 92.4420473,38.4107806 93.2509733,38.1286177 L93.358916,38.0944892 Z M8.37677706,71.1683864 C8.88775135,70.8741574 9.54113164,71.048766 9.83614279,71.5583857 C10.1311539,72.0680054 9.95608121,72.7196536 9.44510692,73.0138826 C8.93413263,73.3081117 8.28075234,73.1335031 7.98574119,72.6238834 C7.69073005,72.1142637 7.86580277,71.4626155 8.37677706,71.1683864 Z M89.1776467,24.6416529 C89.688621,24.3474238 90.3420013,24.5220324 90.6370124,25.0316521 C90.9320236,25.5412718 90.7569509,26.19292 90.2459766,26.4871491 C89.7350023,26.7813781 89.081622,26.6067695 88.7866108,26.0971498 C88.4915997,25.5875301 88.6666724,24.935882 89.1776467,24.6416529 Z M0.0652722704,55.7337947 L4.98978785,54.9582003 L5.11976749,55.7791158 L2.92484055,56.1248094 L3.29033887,58.4331959 L5.48526582,58.0875024 L5.61524546,58.9084179 L0.690729884,59.6840124 L0.560750238,58.8630968 L2.61497674,58.5395631 L2.24947841,56.2311766 L0.195251917,56.5547103 L0.0652722704,55.7337947 Z M80.5481854,9.96125543 L81.9589898,11.0563451 C83.0234917,11.8781824 83.1870506,13.3205867 82.2855726,14.4570128 C81.4013287,15.5717131 80.0341334,15.7975098 79.0166729,15.0878163 L78.9127001,15.0110607 L77.4460404,13.8718982 L80.5481854,9.96125543 Z M80.6474077,11.0268222 L78.4953499,13.7397609 L79.3029178,14.3588627 C80.0155318,14.9030404 81.002728,14.8034105 81.6479035,13.9900859 C82.2704315,13.2053113 82.1873215,12.2796729 81.5619497,11.7327064 L81.4773177,11.6635531 L80.6474077,11.0268222 Z M71.5997025,4.65396002 L74.5362555,6.08667618 L74.2013794,6.76941733 L71.9493824,5.67068947 L71.3641317,6.86389129 L73.4817766,7.89707004 L73.1594193,8.55428816 L71.0417744,7.5211094 L70.4283566,8.77173805 L72.6803536,9.87046591 L72.3454775,10.5532071 L69.4089246,9.1204909 L71.5997025,4.65396002 Z M0.0638525534,45.8678951 L5.18618371,44.3683351 L5.1149197,45.2534006 L3.85620505,45.6229159 L3.70398513,47.5134158 L4.88801509,48.0714492 L4.80965173,48.9559461 L0,46.6609138 L0.0638525534,45.8678951 Z M1.00453647,46.3423027 L3.01115405,47.24414 L3.12916725,45.7784715 L1.00453647,46.3423027 Z M61.1379293,1.13319458 L65.2023152,2.19732003 L65.0229391,2.90678795 L63.3645492,2.46524923 L62.2762393,6.57202098 L61.5391388,6.37903552 L62.6256403,2.27913429 L60.9585533,1.8426625 L61.1379293,1.13319458 Z M2.82629566,33.2008326 L7.59847028,34.6642595 L7.288152,35.6466668 L2.98669947,36.6685163 L6.62880136,37.7853971 L6.40901781,38.4983072 L1.64365086,37.0369678 L1.9262297,36.1203691 L6.36434434,35.0661131 L2.60651211,33.9137426 L2.82629566,33.2008326 Z M51.6279212,0 L54.8223911,0.146978031 L54.7885849,0.877842495 L52.3553807,0.765890409 L52.2910505,2.15666162 L54.5748475,2.26173946 L54.5443234,2.92164621 L52.2605264,2.81656837 L52.1594361,5.00206599 L51.3981704,4.96704004 L51.6279212,0 Z M10.1795525,24.0076098 C11.4108649,24.7232925 11.8280261,26.0413242 11.267228,27.1461229 L11.2057191,27.2596183 L10.2820457,28.8685735 L5.96229919,26.3577827 L6.85011133,24.8101992 C7.51558329,23.6431205 8.9242416,23.2779783 10.1795525,24.0076098 Z M7.57753465,25.1067256 L7.52084119,25.2000514 L7.00598677,26.1093689 L10.002734,27.8511853 L10.5032439,26.9664165 C10.9427895,26.1859795 10.7045146,25.2253297 9.80610584,24.7031424 C8.97692374,24.2211922 8.11096547,24.394889 7.6393597,25.0188661 L7.57753465,25.1067256 Z M41.9114167,0.74274077 L42.6983396,0.612489536 L45.3975679,5.20604705 L44.5193057,5.35141673 L43.8550228,4.22288681 L41.9790547,4.53339645 L41.7229187,5.81427379 L40.8434905,5.952636 L41.9114167,0.74274077 Z M42.4646268,1.63763876 L42.0732328,3.79776056 L43.527635,3.55702837 L42.4646268,1.63763876 Z M29.8804013,4.33047136 L31.8665758,3.50709938 C32.6766189,3.17442767 33.4471538,3.51094841 33.7400322,4.22032022 C33.9895212,4.82459991 33.811324,5.38174648 33.5110941,5.64332147 C33.9736453,5.60699844 34.2874392,5.9006364 34.5667572,6.44657401 L34.6965047,6.70606064 L34.6965047,6.70606064 L34.8446435,7.00993559 C34.9459548,7.21259706 35.025712,7.34526383 35.160198,7.46817287 L35.2164312,7.51642532 L34.3998024,7.85180168 C34.3015965,7.7538579 34.2283775,7.64181141 34.1501704,7.49436385 L34.0520093,7.29907117 L34.0520093,7.29907117 L33.8706101,6.92451962 L33.8706101,6.92451962 L33.7830926,6.75516701 C33.5241509,6.27649393 33.2819324,6.06876212 32.6305246,6.30688708 L32.5236269,6.34845509 L31.7004123,6.6865361 L32.505828,8.63730859 L31.7813992,8.93481988 L29.8804013,4.33047136 Z M15.9626113,16.7402254 L16.3957465,17.1309441 L14.7236121,18.9747906 L14.290477,18.5840719 L15.9626113,16.7402254 Z M24.4248438,9.03084077 L24.5075943,9.11395227 L23.7721658,9.62685196 C23.3843426,9.24724624 22.7075797,9.11249034 22.1063961,9.53176547 C21.3651308,10.0487358 21.3693144,11.0339395 21.9325548,11.8372735 C22.4835509,12.6231438 23.3854497,12.93026 24.103368,12.4295722 C24.6987149,12.0143677 24.7950778,11.3518447 24.6286657,10.8833233 L24.5966191,10.8027467 L25.3320476,10.289847 C25.7610432,11.1868056 25.6064505,12.3174133 24.5558384,13.0501271 C23.4935527,13.7909822 22.0332532,13.5179267 21.2105551,12.3321401 C20.3756126,11.1288897 20.5467015,9.67473881 21.6907014,8.87689486 C22.6281707,8.22308867 23.6368491,8.34679873 24.3387335,8.95262309 L24.4248438,9.03084077 Z M30.8597428,4.65037628 L31.4427878,6.06255164 L32.5228453,5.61898935 C32.9772597,5.43236864 33.258119,5.08656527 33.0493075,4.58080944 C32.8510044,4.10050561 32.4487545,4.02804241 32.0248219,4.17463143 L31.9398003,4.20681399 L30.8597428,4.65037628 Z" id="path-2"></path>
        <linearGradient x1="99.4803375%" y1="1.74147944e-13%" x2="5.15624123%" y2="100%" id="linearGradient-3">
            <stop stop-color="#FFFFFF" stop-opacity="0.5" offset="0%"></stop>
            <stop stop-color="#FFFFFF" stop-opacity="0.5" offset="36.9744423%"></stop>
            <stop stop-color="#FFFFFF" stop-opacity="0.5" offset="41.5297233%"></stop>
            <stop stop-color="#FFC68C" stop-opacity="0.5" offset="60.9096845%"></stop>
            <stop stop-color="#FFFFFF" stop-opacity="0.5" offset="100%"></stop>
        </linearGradient>
        <path d="M70.1896159,25.7698279 L79.8677816,31.3468331 L79.8677816,66.9404595 L54.1131073,81.7543794 L54.1131073,70.6271817 L70.1896159,61.3634544 L70.1896159,25.7698279 Z M54.1131073,16.5061007 L63.791273,22.0764027 L63.791273,58.4207798 L54.1131073,63.9910818 L54.1131073,53.4805722 L43.8300562,53.4805722 L43.8300562,81.7476763 L34.1518905,76.163968 L34.1518905,39.8397002 L43.8300562,34.2693982 L43.8300562,44.8536424 L54.1131073,44.8536424 L54.1131073,16.5061007 Z M43.8300562,16.5061007 L43.8300562,27.6332984 L27.7535476,36.8970257 L27.7535476,72.4906521 L18.0753819,66.913647 L18.0753819,31.3200205 L43.8300562,16.5061007 Z" id="path-4"></path>
    </defs>
    <g id="Page-1" stroke="none" stroke-width="1" fill="none" fill-rule="evenodd">
        <g id="Group-3" fill-rule="nonzero">
            <g id="Shape">
                <use fill="#000000" xlink:href="#path-2"></use>
                <use fill="url(#linearGradient-1)" xlink:href="#path-2"></use>
            </g>
            <g id="Combined-Shape">
                <use fill="#FFC574" xlink:href="#path-4"></use>
                <path stroke-opacity="0.396088287" stroke="#D8A261" stroke-width="0.25" d="M70.3146159,25.9861273 L79.7427816,31.4190709 L79.7427816,66.8681558 L54.2381073,81.5382773 L54.2381073,70.6994207 L70.3146159,61.4356934 L70.3146159,25.9861273 Z M54.2381073,16.7222703 L63.666273,22.1486839 L63.666273,58.3484986 L54.2381073,63.7749122 L54.2381073,53.3555722 L43.7050562,53.3555722 L43.7050562,81.5312471 L34.2768905,76.0917735 L34.2768905,39.9119815 L43.7050562,34.4855678 L43.7050562,44.9786424 L54.2381073,44.9786424 L54.2381073,16.7222703 Z M43.7050562,16.7222028 L43.7050562,27.5610594 L27.6285476,36.8247867 L27.6285476,72.2743528 L18.2003819,66.8414092 L18.2003819,31.3923243 L43.7050562,16.7222028 Z" stroke-linejoin="square" fill="url(#linearGradient-3)" fill-rule="evenodd"></path>
            </g>
        </g>
    </g>
</svg>