<?xml version="1.0" encoding="UTF-8"?>
<svg width="45px" height="33px" viewBox="0 0 45 33" version="1.1" xmlns="http://www.w3.org/2000/svg" xmlns:xlink="http://www.w3.org/1999/xlink">
    <title>orders</title>
    <g id="orders" stroke="none" stroke-width="1" fill="none" fill-rule="evenodd">
        <path d="M23,10.2456339 L21.1653571,29.4267054 C21.0717064,30.4568637 20.2079771,31.2456339 19.1735707,31.2456339 L7.82642928,31.2456339 C6.79202287,31.2456339 5.92829362,30.4568637 5.83464286,29.4267054 L4,10.2456339" id="Path" stroke="#000000" stroke-width="1.5"></path>
        <path d="M4,5.74563387 L23,5.74563387 C24.1045695,5.74563387 25,6.64106437 25,7.74563387 L25,10.2456339 C25,10.5217762 24.7761424,10.7456339 24.5,10.7456339 L2.5,10.7456339 C2.22385763,10.7456339 2,10.5217762 2,10.2456339 L2,7.74563387 C2,6.64106437 2.8954305,5.74563387 4,5.74563387 Z" id="Rectangle" stroke="#000000" stroke-width="1.5"></path>
        <path d="M6,6.03 L6,3.43854512 C6,2.38448475 6.8954305,1.53 8,1.53 C8.08840005,1.53 8.17670285,1.53559291 8.26432744,1.54674195 L19.2643274,2.9463417 C20.2579395,3.07276526 21,3.88157706 21,4.83814487 L21,6.03" id="Path" stroke="#000000" stroke-width="1.5"></path>
        <line x1="32.5" y1="10.4956339" x2="42.5" y2="10.4956339" id="Line" stroke="#000000" stroke-width="1.5" stroke-linecap="square"></line>
        <line x1="30.5" y1="17.4956339" x2="42.5" y2="17.4956339" id="Line" stroke="#000000" stroke-width="1.5" stroke-linecap="square"></line>
        <line x1="28.5" y1="24.4956339" x2="42.5" y2="24.4956339" id="Line" stroke="#000000" stroke-width="1.5" stroke-linecap="square"></line>
    </g>
</svg>